PathFileType	4	(X/Y/Z)	F:\Vicon\SynologyDrive\Marcel_BSc\Ayumi_25_09_2024\25-09-2024\conventional_dl_80kg03.trc
DataRate	CameraRate	NumFrames	NumMarkers	Units	OrigDataRate	OrigDataStartFrame	OrigNumFrames
200.0	200.0	92	1	mm	200.0	2101	2801	
Frame#	Time	RBAR			
		X1	Y1	Z1	
2101	10.495	217.66887	246.65833	-1703.1692
2102	10.5	217.62924	246.71205	-1703.1665
2103	10.505	217.54105	246.75706	-1703.1737
2104	10.51	217.41304	246.7085	-1703.1588
2105	10.515	217.31052	246.60837	-1703.1317
2106	10.52	217.26814	246.53777	-1703.1414
2107	10.525	217.25208	246.47742	-1703.1323
2108	10.53	217.25681	246.38322	-1703.1277
2109	10.535	217.24768	246.21646	-1703.1472
2110	10.54	217.20845	246.02943	-1703.1377
2111	10.545	217.18301	245.90164	-1703.1476
2112	10.55	217.10612	245.78368	-1703.1661
2113	10.555	216.91978	245.68596	-1703.1606
2114	10.56	216.70543	245.66833	-1703.1747
2115	10.565	216.56876	245.70444	-1703.1736
2116	10.57	216.53731	245.74614	-1703.1865
2117	10.575	216.53462	245.80203	-1703.192
2118	10.58	216.5305	245.91869	-1703.1925
2119	10.585	216.54518	246.05991	-1703.2017
2120	10.59	216.54965	246.13849	-1703.2168
2121	10.595	216.5302	246.16927	-1703.2267
2122	10.6	216.4823	246.14879	-1703.2446
2123	10.605	216.44211	246.095	-1703.2477
2124	10.61	216.41878	246.04027	-1703.2646
2125	10.615	216.39958	245.98018	-1703.2944
2126	10.62	216.38997	245.94803	-1703.2981
2127	10.625	216.39857	245.97774	-1703.307
2128	10.63	216.37241	246.05904	-1703.3198
2129	10.635	216.34818	246.18341	-1703.3234
2130	10.64	216.31151	246.30515	-1703.3247
2131	10.645	216.24849	246.37828	-1703.3368
2132	10.65	216.19472	246.41042	-1703.355
2133	10.655	216.15349	246.39374	-1703.3689
2134	10.66	216.14497	246.30241	-1703.3893
2135	10.665	216.14601	246.19263	-1703.4246
2136	10.67	216.16402	246.11168	-1703.4425
2137	10.675	216.18112	246.04013	-1703.4728
2138	10.68	216.19469	245.94388	-1703.4958
2139	10.685	216.17039	245.84055	-1703.501
2140	10.69	216.05785	245.79611	-1703.5249
2141	10.695	215.91585	245.89288	-1703.5541
2142	10.7	215.84961	246.01707	-1703.5686
2143	10.705	215.86382	246.04034	-1703.5835
2144	10.71	215.83496	245.99748	-1703.6136
2145	10.715	215.81056	246.06308	-1703.6284
2146	10.72	215.79138	246.11331	-1703.6459
2147	10.725	215.78503	246.07083	-1703.6541
2148	10.73	215.78278	246.12314	-1703.6666
2149	10.735	215.80054	246.19516	-1703.6782
2150	10.74	215.78809	246.24199	-1703.6768
2151	10.745	215.74092	246.30173	-1703.6758
2152	10.75	215.68484	246.27007	-1703.6969
2153	10.755	215.6694	246.24954	-1703.7164
2154	10.76	215.64577	246.29442	-1703.7134
2155	10.765	215.65158	246.29031	-1703.7227
2156	10.77	215.67113	246.29463	-1703.7256
2157	10.775	215.7001	246.30197	-1703.7208
2158	10.78	215.71765	246.30844	-1703.7144
2159	10.785	215.72237	246.36923	-1703.7034
2160	10.79	215.74477	246.43164	-1703.6934
2161	10.795	215.76028	246.43529	-1703.6849
2162	10.8	215.74225	246.45244	-1703.6726
2163	10.805	215.74109	246.4501	-1703.6581
2164	10.81	215.75188	246.42905	-1703.6416
2165	10.815	215.7706	246.42868	-1703.6171
2166	10.82	215.80127	246.3831	-1703.5975
2167	10.825	215.83765	246.37883	-1703.5657
2168	10.83	215.87486	246.4176	-1703.5289
2169	10.835	215.89738	246.45906	-1703.5042
2170	10.84	215.92514	246.50552	-1703.4722
2171	10.845	215.95433	246.54547	-1703.4447
2172	10.85	215.97673	246.54329	-1703.4166
2173	10.855	215.99745	246.54776	-1703.3846
2174	10.86	216.03951	246.53001	-1703.3424
2175	10.865	216.07016	246.46559	-1703.3102
2176	10.87	216.11606	246.44513	-1703.2771
2177	10.875	216.14867	246.45171	-1703.2247
2178	10.88	216.16249	246.48671	-1703.1816
2179	10.885	216.16643	246.54503	-1703.1396
2180	10.89	216.19765	246.5769	-1703.0966
2181	10.895	216.22816	246.59074	-1703.0551
2182	10.9	216.25885	246.5919	-1703.0189
2183	10.905	216.31155	246.54669	-1702.9777
2184	10.91	216.36552	246.49005	-1702.9316
2185	10.915	216.39343	246.45763	-1702.887
2186	10.92	216.4268	246.45805	-1702.8434
2187	10.925	216.45691	246.48921	-1702.8123
2188	10.93	216.4666	246.52148	-1702.7756
2189	10.935	216.48058	246.55389	-1702.7418
2190	10.94	216.48682	246.57738	-1702.7167
2191	10.945	216.48886	246.57838	-1702.6909
2192	10.95	216.50287	246.56454	-1702.6733
